# xmcd CD database file
#
# Track frame offsets:
#	150
#	15657
#	24327
#	36630
#	46760
#	57700
#	68222
#	84665
#	95682
#	107792
#	123815
#	159372
#	168675
#	183415
#	194512
#	207872
#	222012
#	239545
#	249820
#	266027
#
# Disc length: 3792 seconds
#
# Revision: 0
# Processed by: cddbd v1.4PL0 Copyright (c) Steve Scherf et al.
# Submitted via: CDex 1.50beta10
#
DISCID=1d0ece14
DTITLE=Tamba Trio - Tamba Trio
DYEAR=2000
DGENRE=Jazz
TTITLE0=Desafinado
TTITLE1=Garota de Ipanema
TTITLE2=Mas, Que Nada
TTITLE3=O Samba Da Minha Terra
TTITLE4=O Barquinho
TTITLE5=Agua De beber
TTITLE6=Corcovado
TTITLE7=Influencia Do Jazz
TTITLE8=Rio
TTITLE9=Berinbau
TTITLE10=Consolacao
TTITLE11=Batida Diferente
TTITLE12=Imagem
TTITLE13=O Amor Que Acabou
TTITLE14=Procissao
TTITLE15=Reza
TTITLE16=Canto De Ossanha
TTITLE17=Nos E O Mar
TTITLE18=Cancao Do Nosso Amor
TTITLE19=A morte De Um Deus De Sal
EXTD=YEAR: 2000
EXTT0=
EXTT1=
EXTT2=
EXTT3=
EXTT4=
EXTT5=
EXTT6=
EXTT7=
EXTT8=
EXTT9=
EXTT10=
EXTT11=
EXTT12=
EXTT13=
EXTT14=
EXTT15=
EXTT16=
EXTT17=
EXTT18=
EXTT19=
PLAYORDER=
